<mxfile host="Electron" modified="2024-03-15T18:46:54.761Z" agent="Mozilla/5.0 (Windows NT 10.0; Win64; x64) AppleWebKit/537.36 (KHTML, like Gecko) draw.io/23.1.5 Chrome/120.0.6099.109 Electron/28.1.0 Safari/537.36" etag="0aIa_p-anyV01Qg-LjTg" version="23.1.5" type="device">
  <diagram name="PÃ¡gina-1" id="dCh73Y6aYCWtRJEXHIBT">
    <mxGraphModel dx="2650" dy="1429" grid="0" gridSize="10" guides="1" tooltips="1" connect="1" arrows="1" fold="1" page="0" pageScale="1" pageWidth="1169" pageHeight="827" math="0" shadow="0">
      <root>
        <mxCell id="0" />
        <mxCell id="1" parent="0" />
        <mxCell id="WkZVKajLnWnvF3A5Mwbh-2" value="ProxyImage             " style="swimlane;fontStyle=1;childLayout=stackLayout;horizontal=1;startSize=26;fillColor=#D60072;horizontalStack=0;resizeParent=1;resizeParentMax=0;resizeLast=0;collapsible=1;marginBottom=0;whiteSpace=wrap;html=1;points=[[0,0,0,0,0],[0,0.25,0,0,0],[0,0.5,0,0,0],[0,0.75,0,0,0],[0,1,0,0,0],[0.25,0,0,0,0],[0.25,1,0,0,0],[0.5,0,0,0,0],[0.5,1,0,0,0],[0.75,0,0,0,0],[0.75,1,0,0,0],[1,0,0,0,0],[1,0.25,0,0,0],[1,0.5,0,0,0],[1,0.75,0,0,0],[1,1,0,0,0]];fontColor=#ffffff;strokeColor=#000000;fontSize=15;strokeWidth=2;swimlaneFillColor=#F7FCFC;fontFamily=Verdana;" parent="1" vertex="1">
          <mxGeometry x="-1107" y="-648.5" width="392" height="136" as="geometry" />
        </mxCell>
        <mxCell id="WkZVKajLnWnvF3A5Mwbh-3" value="&lt;b&gt;filename:&lt;/b&gt;&amp;nbsp;String" style="text;strokeColor=none;fillColor=none;align=left;verticalAlign=top;spacingLeft=4;spacingRight=4;overflow=hidden;rotatable=0;points=[[0,0.5],[1,0.5]];portConstraint=eastwest;whiteSpace=wrap;html=1;fontColor=#000000;fontSize=15;fontFamily=Verdana;" parent="WkZVKajLnWnvF3A5Mwbh-2" vertex="1">
          <mxGeometry y="26" width="392" height="26" as="geometry" />
        </mxCell>
        <mxCell id="WkZVKajLnWnvF3A5Mwbh-4" value="&lt;b&gt;image:&lt;/b&gt; Image" style="text;strokeColor=none;fillColor=none;align=left;verticalAlign=top;spacingLeft=4;spacingRight=4;overflow=hidden;rotatable=0;points=[[0,0.5],[1,0.5]];portConstraint=eastwest;whiteSpace=wrap;html=1;fontColor=#000000;fontSize=15;fontFamily=Verdana;" parent="WkZVKajLnWnvF3A5Mwbh-2" vertex="1">
          <mxGeometry y="52" width="392" height="26" as="geometry" />
        </mxCell>
        <object label="&lt;b&gt;is_loaded:&lt;/b&gt; bool" Total="" id="WkZVKajLnWnvF3A5Mwbh-5">
          <mxCell style="text;strokeColor=none;fillColor=none;align=left;verticalAlign=top;spacingLeft=4;spacingRight=4;overflow=hidden;rotatable=0;points=[[0,0.5],[1,0.5]];portConstraint=eastwest;whiteSpace=wrap;html=1;fontColor=#000000;fontSize=15;fontFamily=Verdana;" parent="WkZVKajLnWnvF3A5Mwbh-2" vertex="1">
            <mxGeometry y="78" width="392" height="26" as="geometry" />
          </mxCell>
        </object>
        <mxCell id="WkZVKajLnWnvF3A5Mwbh-9" value="" style="line;strokeWidth=3;fillColor=none;align=left;verticalAlign=middle;spacingTop=-1;spacingLeft=3;spacingRight=3;rotatable=0;labelPosition=right;points=[];portConstraint=eastwest;strokeColor=inherit;fontColor=#000000;fontSize=15;fontFamily=Verdana;" parent="WkZVKajLnWnvF3A5Mwbh-2" vertex="1">
          <mxGeometry y="104" width="392" height="2" as="geometry" />
        </mxCell>
        <mxCell id="WkZVKajLnWnvF3A5Mwbh-12" value="&lt;b&gt;display_image&lt;/b&gt;()" style="text;strokeColor=none;fillColor=none;align=left;verticalAlign=top;spacingLeft=4;spacingRight=4;overflow=hidden;rotatable=0;points=[[0,0.5],[1,0.5]];portConstraint=eastwest;whiteSpace=wrap;html=1;fontColor=#000000;fontSize=15;fontFamily=Verdana;" parent="WkZVKajLnWnvF3A5Mwbh-2" vertex="1">
          <mxGeometry y="106" width="392" height="30" as="geometry" />
        </mxCell>
        <mxCell id="WkZVKajLnWnvF3A5Mwbh-20" value="Image" style="swimlane;fontStyle=1;childLayout=stackLayout;horizontal=1;startSize=26;fillColor=#D60072;horizontalStack=0;resizeParent=1;resizeParentMax=0;resizeLast=0;collapsible=1;marginBottom=0;whiteSpace=wrap;html=1;points=[[0,0,0,0,0],[0,0.25,0,0,0],[0,0.5,0,0,0],[0,0.75,0,0,0],[0,1,0,0,0],[0.25,0,0,0,0],[0.25,1,0,0,0],[0.5,0,0,0,0],[0.5,1,0,0,0],[0.75,0,0,0,0],[0.75,1,0,0,0],[1,0,0,0,0],[1,0.25,0,0,0],[1,0.5,0,0,0],[1,0.75,0,0,0],[1,1,0,0,0]];fontColor=#ffffff;strokeColor=#000000;fontSize=15;strokeWidth=2;swimlaneFillColor=#F7FCFC;fontFamily=Verdana;" parent="1" vertex="1">
          <mxGeometry x="-1598" y="-662.5" width="392" height="166" as="geometry" />
        </mxCell>
        <mxCell id="WkZVKajLnWnvF3A5Mwbh-21" value="&lt;b&gt;filename: &lt;/b&gt;String" style="text;strokeColor=none;fillColor=none;align=left;verticalAlign=top;spacingLeft=4;spacingRight=4;overflow=hidden;rotatable=0;points=[[0,0.5],[1,0.5]];portConstraint=eastwest;whiteSpace=wrap;html=1;fontColor=#000000;fontSize=15;fontFamily=Verdana;" parent="WkZVKajLnWnvF3A5Mwbh-20" vertex="1">
          <mxGeometry y="26" width="392" height="26" as="geometry" />
        </mxCell>
        <mxCell id="WkZVKajLnWnvF3A5Mwbh-22" value="&lt;b&gt;is_loader: &lt;/b&gt;bool" style="text;strokeColor=none;fillColor=none;align=left;verticalAlign=top;spacingLeft=4;spacingRight=4;overflow=hidden;rotatable=0;points=[[0,0.5],[1,0.5]];portConstraint=eastwest;whiteSpace=wrap;html=1;fontColor=#000000;fontSize=15;fontFamily=Verdana;" parent="WkZVKajLnWnvF3A5Mwbh-20" vertex="1">
          <mxGeometry y="52" width="392" height="26" as="geometry" />
        </mxCell>
        <object label="&lt;b&gt;image_data: &lt;/b&gt;bytes" Total="" id="WkZVKajLnWnvF3A5Mwbh-23">
          <mxCell style="text;strokeColor=none;fillColor=none;align=left;verticalAlign=top;spacingLeft=4;spacingRight=4;overflow=hidden;rotatable=0;points=[[0,0.5],[1,0.5]];portConstraint=eastwest;whiteSpace=wrap;html=1;fontColor=#000000;fontSize=15;fontFamily=Verdana;" parent="WkZVKajLnWnvF3A5Mwbh-20" vertex="1">
            <mxGeometry y="78" width="392" height="26" as="geometry" />
          </mxCell>
        </object>
        <mxCell id="WkZVKajLnWnvF3A5Mwbh-28" value="" style="line;strokeWidth=3;fillColor=none;align=left;verticalAlign=middle;spacingTop=-1;spacingLeft=3;spacingRight=3;rotatable=0;labelPosition=right;points=[];portConstraint=eastwest;strokeColor=inherit;fontColor=#000000;fontSize=15;fontFamily=Verdana;" parent="WkZVKajLnWnvF3A5Mwbh-20" vertex="1">
          <mxGeometry y="104" width="392" height="2" as="geometry" />
        </mxCell>
        <mxCell id="WkZVKajLnWnvF3A5Mwbh-30" value="&lt;b&gt;load_image_from_disk&lt;/b&gt;()" style="text;strokeColor=none;fillColor=none;align=left;verticalAlign=top;spacingLeft=4;spacingRight=4;overflow=hidden;rotatable=0;points=[[0,0.5],[1,0.5]];portConstraint=eastwest;whiteSpace=wrap;html=1;fontColor=#000000;fontSize=15;fontFamily=Verdana;" parent="WkZVKajLnWnvF3A5Mwbh-20" vertex="1">
          <mxGeometry y="106" width="392" height="30" as="geometry" />
        </mxCell>
        <mxCell id="X38IMhrV3jOkHO2mjonS-1" value="&lt;b&gt;display_image&lt;/b&gt;()" style="text;strokeColor=none;fillColor=none;align=left;verticalAlign=top;spacingLeft=4;spacingRight=4;overflow=hidden;rotatable=0;points=[[0,0.5],[1,0.5]];portConstraint=eastwest;whiteSpace=wrap;html=1;fontColor=#000000;fontSize=15;fontFamily=Verdana;" parent="WkZVKajLnWnvF3A5Mwbh-20" vertex="1">
          <mxGeometry y="136" width="392" height="30" as="geometry" />
        </mxCell>
        <mxCell id="WkZVKajLnWnvF3A5Mwbh-34" value="" style="html=1;verticalAlign=bottom;endArrow=open;dashed=1;endSize=8;curved=0;rounded=0;strokeColor=#F7FCFC;strokeWidth=3;exitX=1.013;exitY=0.068;exitDx=0;exitDy=0;entryX=0;entryY=0.5;entryDx=0;entryDy=0;exitPerimeter=0;" parent="1" source="WkZVKajLnWnvF3A5Mwbh-20" target="WkZVKajLnWnvF3A5Mwbh-4" edge="1">
          <mxGeometry relative="1" as="geometry">
            <mxPoint x="-1196" y="-513.9999999999999" as="sourcePoint" />
            <mxPoint x="-627" y="-57.5" as="targetPoint" />
          </mxGeometry>
        </mxCell>
      </root>
    </mxGraphModel>
  </diagram>
</mxfile>
